{"title":"Experiences 2 (XXX)(iPod,PSP,Zune)","uid":6318032,"size":267026278,"categoryP":"porn","categoryS":"movies","magnet":"?xt=urn:btih:180b996b80a2a0089108ba3574cb8dfeb28c45fb&amp;dn=Experiences+2+%28XXX%29%28iPod%2CPSP%2CZune%29&amp;tr=udp%3A%2F%2Ftracker.openbittorrent.com%3A80&amp;tr=udp%3A%2F%2Fopen.demonii.com%3A1337&amp;tr=udp%3A%2F%2Ftracker.coppersurfer.tk%3A6969&amp;tr=udp%3A%2F%2Fexodus.desync.com%3A6969","seeders":0,"leechers":0,"uploader":null,"files":-1,"time":1302772696,"description":"SCREENSHOTS:\n &lt;a href=&quot;\nhttp://lnk.co/GQ16L&quot; rel=&quot;nofollow&quot; target=&quot;_NEW&quot;&gt;\nhttp://lnk.co/GQ16L&lt;/a&gt;\n &lt;a href=&quot;\nhttp://lnk.co/GQ16M&quot; rel=&quot;nofollow&quot; target=&quot;_NEW&quot;&gt;\nhttp://lnk.co/GQ16M&lt;/a&gt;\n\nVideo\nID                               : 1\nFormat                           : AVC\nFormat/Info                      : Advanced Video Codec\nFormat profile                   : &lt;a class=&quot;__cf_email__&quot; href=&quot;/cdn-cgi/l/email-protection&quot; data-cfemail=&quot;d092b1a3b5bcb9beb5909ce1fee3&quot;&gt;[email&amp;#160;protected]&lt;/a&gt;&lt;script cf-hash='f9e31' type=&quot;text/javascript&quot;&gt;\n/* &lt;![CDATA[ */!function(){try{var t=&quot;currentScript&quot;in document?document.currentScript:function(){for(var t=document.getElementsByTagName(&quot;script&quot;),e=t.length;e--;)if(t[e].getAttribute(&quot;cf-hash&quot;))return t[e]}();if(t&amp;&amp;t.previousSibling){var e,r,n,i,c=t.previousSibling,a=c.getAttribute(&quot;data-cfemail&quot;);if(a){for(e=&quot;&quot;,r=parseInt(a.substr(0,2),16),n=2;a.length-n;n+=2)i=parseInt(a.substr(n,2),16)^r,e+=String.fromCharCode(i);e=document.createTextNode(e),c.parentNode.replaceChild(e,c)}}}catch(u){}}();/* ]]&gt; */&lt;/script&gt;\nFormat settings, CABAC           : No\nFormat settings, ReFrames        : 2 frames\nCodec ID                         : avc1\nCodec ID/Info                    : Advanced Video Coding\nDuration                         : 1h 23mn\nBit rate mode                    : Variable\nBit rate                         : 360 Kbps\nWidth                            : 368 pixels\nHeight                           : 272 pixels\nDisplay aspect ratio             : 4:3\nFrame rate mode                  : Variable\nFrame rate                       : 23.976 fps\nMinimum frame rate               : 23.974 fps\nMaximum frame rate               : 23.981 fps\nColor space                      : YUV\nChroma subsampling               : 4:2:0\nBit depth                        : 8 bits\nScan type                        : Progressive\nBits/(Pixel*Frame)               : 0.150\nStream size                      : 214 MiB (84%)\nWriting library                  : x264 core 112\n\nAudio\nID                               : 2\nFormat                           : AAC\nFormat/Info                      : Advanced Audio Codec\nFormat profile                   : LC\nCodec ID                         : 40\nDuration                         : 1h 23mn\nBit rate mode                    : Variable\nBit rate                         : 64.0 Kbps\nMaximum bit rate                 : 91.8 Kbps\nChannel(s)                       : 2 channels\nChannel positions                : Front: L R\nSampling rate                    : 22.05 KHz\nCompression mode                 : Lossy\nStream size                      : 38.1 MiB (15%)\n\nencoded for iPod,PSP,Zune and other handheld devices...:)","torrent":{"xt":"urn:btih:180b996b80a2a0089108ba3574cb8dfeb28c45fb","amp;dn":"Experiences+2+%28XXX%29%28iPod%2CPSP%2CZune%29","amp;tr":["udp%3A%2F%2Ftracker.openbittorrent.com%3A80","udp%3A%2F%2Fopen.demonii.com%3A1337","udp%3A%2F%2Ftracker.coppersurfer.tk%3A6969","udp%3A%2F%2Fexodus.desync.com%3A6969"],"infoHash":"180b996b80a2a0089108ba3574cb8dfeb28c45fb","infoHashBuffer":{"type":"Buffer","data":[24,11,153,107,128,162,160,8,145,8,186,53,116,203,141,254,178,140,69,251]},"announce":[],"urlList":[]}}